<svg width="370" height="369" viewBox="0 0 370 369" fill="none" xmlns="http://www.w3.org/2000/svg">
<rect x="0.207031" width="368.935" height="368.935" rx="65.8225" fill="url(#paint0_linear_1315_5)"/>
<path d="M188.109 277.614C186.755 280.471 182.597 280.471 181.242 277.614C162.981 239.095 133.73 207.803 97.7659 188.33C95.1373 186.906 95.1373 182.993 97.7659 181.57C133.73 162.096 162.981 130.805 181.242 92.2862C182.597 89.4291 186.755 89.4291 188.109 92.2862C206.37 130.805 235.621 162.096 271.585 181.57C274.214 182.993 274.214 186.906 271.585 188.33C235.621 207.803 206.37 239.095 188.109 277.614Z" fill="white"/>
<defs>
<linearGradient id="paint0_linear_1315_5" x1="87.2452" y1="369.872" x2="523.358" y2="64.2393" gradientUnits="userSpaceOnUse">
<stop stop-color="#6BD9B9"/>
<stop offset="0.698699" stop-color="#DEFF00"/>
</linearGradient>
</defs>
</svg>
