<svg width="2588" height="946" viewBox="0 0 2588 946" fill="none" xmlns="http://www.w3.org/2000/svg">
<path d="M1011.97 413.076C1011.97 428.866 1020.5 441.498 1037.55 450.972C1055.24 459.815 1076.39 467.71 1101.03 474.658C1126.29 480.974 1151.56 488.553 1176.82 497.396C1202.08 506.238 1223.24 521.397 1240.3 542.871C1257.98 563.714 1266.82 590.242 1266.82 622.454C1266.82 667.93 1249.14 703.616 1213.77 729.511C1179.03 755.407 1135.13 768.355 1082.08 768.355C1035.34 768.355 995.233 758.565 961.757 738.986C929.863 720.33 906.283 694.795 891.016 662.379C889.717 659.623 890.795 656.353 893.43 654.823L970.703 609.955C973.939 608.077 978.079 609.601 979.539 613.046C996.916 654.056 1031.1 674.562 1082.08 674.562C1135.77 674.562 1162.61 656.877 1162.61 621.507C1162.61 606.348 1153.77 594.032 1136.08 584.558C1119.03 575.083 1097.87 567.188 1072.6 560.872C1047.97 553.924 1023.02 546.029 997.759 537.187C972.495 528.344 951.02 513.817 933.335 493.606C916.282 472.763 907.755 446.551 907.755 414.971C907.755 371.39 924.177 336.336 957.02 309.808C990.495 283.281 1031.87 270.017 1081.13 270.017C1120.29 270.017 1155.03 278.859 1185.35 296.544C1214.56 312.643 1237.3 334.932 1253.57 363.413C1255.19 366.242 1254.13 369.82 1251.29 371.413L1175.87 413.68C1172.81 415.395 1168.95 414.115 1167.32 411.011C1150.41 378.912 1121.69 362.863 1081.13 362.863C1061.55 362.863 1045.13 367.284 1031.87 376.127C1018.6 384.338 1011.97 396.654 1011.97 413.076Z" fill="white"/>
<path d="M767.642 286.35C768.488 283.952 770.755 282.347 773.298 282.347H869.375C873.556 282.347 876.454 286.518 874.996 290.436L696.103 771.212C651.424 891.598 576.26 949.797 470.612 945.808C467.437 945.688 464.935 943.054 464.935 939.877V856.208C464.935 852.757 467.842 850.029 471.292 850.108C500.571 850.776 524.348 843.742 542.622 829.004C562.202 813.845 578.308 789.844 590.94 757.001L594.429 750.023C595.221 748.44 595.272 746.589 594.571 744.964L398.442 290.722C396.733 286.763 399.636 282.347 403.948 282.347H502.6C505.032 282.347 507.224 283.817 508.148 286.067L647.785 626.258L767.642 286.35Z" fill="white"/>
<path d="M123.164 413.09C123.164 428.88 131.69 441.512 148.744 450.986C166.429 459.829 187.588 467.724 212.22 474.672C237.485 480.988 262.749 488.567 288.013 497.41C313.277 506.252 334.436 521.411 351.49 542.885C369.175 563.728 378.017 590.256 378.017 622.468C378.017 667.944 360.332 703.629 324.962 729.525C290.224 755.421 246.327 768.369 193.272 768.369C146.533 768.369 106.426 758.579 72.9507 739C41.0565 720.344 17.4759 694.809 2.20903 662.393C0.910794 659.637 1.98876 656.367 4.6237 654.837L81.8968 609.969C85.132 608.091 89.2726 609.615 90.7321 613.059C108.109 654.07 142.289 674.575 193.272 674.575C246.959 674.575 273.802 656.89 273.802 621.52C273.802 606.362 264.959 594.046 247.274 584.571C230.221 575.097 209.062 567.202 183.798 560.886C159.165 553.938 134.217 546.043 108.952 537.201C83.688 528.358 62.2134 513.831 44.5284 493.62C27.4749 472.777 18.9482 446.565 18.9482 414.985C18.9482 371.404 35.37 336.35 68.2136 309.822C101.689 283.295 143.059 270.031 192.325 270.031C231.484 270.031 266.223 278.873 296.54 296.558C325.755 312.656 348.498 334.946 364.768 363.427C366.384 366.256 365.325 369.834 362.483 371.427L287.066 413.694C284.005 415.409 280.145 414.129 278.51 411.025C261.608 378.926 232.879 362.877 192.325 362.877C172.745 362.877 156.323 367.298 143.059 376.141C129.795 384.352 123.164 396.668 123.164 413.09Z" fill="white"/>
<path d="M2485.44 101.493C2485.44 98.1807 2488.12 95.4956 2491.44 95.4956H2581.76C2585.07 95.4956 2587.76 98.1807 2587.76 101.493V752.686C2587.76 755.999 2585.07 758.684 2581.76 758.684H2491.44C2488.12 758.684 2485.44 755.999 2485.44 752.686V690.47C2446.91 744.157 2391.65 771 2319.64 771C2254.59 771 2199 746.999 2152.9 698.997C2106.79 650.363 2083.74 591.308 2083.74 521.831C2083.74 451.722 2106.79 392.667 2152.9 344.665C2199 296.663 2254.59 272.662 2319.64 272.662C2391.65 272.662 2446.91 299.189 2485.44 352.244V101.493ZM2228.69 630.783C2257.11 659.206 2292.8 673.417 2335.75 673.417C2378.7 673.417 2414.38 659.206 2442.81 630.783C2471.23 601.729 2485.44 565.412 2485.44 521.831C2485.44 478.25 2471.23 442.248 2442.81 413.826C2414.38 384.772 2378.7 370.245 2335.75 370.245C2292.8 370.245 2257.11 384.772 2228.69 413.826C2200.27 442.248 2186.06 478.25 2186.06 521.831C2186.06 565.412 2200.27 601.729 2228.69 630.783Z" fill="white"/>
<path d="M1959.09 2.42645C1960.64 -0.808815 1965.4 -0.808816 1966.95 2.42645C1987.85 46.0435 2021.32 81.4764 2062.47 103.528C2065.48 105.139 2065.48 109.571 2062.47 111.182C2021.32 133.233 1987.85 168.666 1966.95 212.283C1965.4 215.518 1960.64 215.518 1959.09 212.283C1938.2 168.666 1904.73 133.233 1863.58 111.182C1860.57 109.571 1860.57 105.139 1863.58 103.528C1904.73 81.4764 1938.2 46.0435 1959.09 2.42645Z" fill="url(#paint0_linear_172_1189)"/>
<path fill-rule="evenodd" clip-rule="evenodd" d="M1727.24 294.056C1727.24 289.54 1730.9 285.88 1735.42 285.88H1821.38C1825.9 285.88 1829.56 289.54 1829.56 294.056V751.41C1829.56 755.925 1825.9 759.586 1821.38 759.586L1735.42 759.586C1730.9 759.586 1727.24 755.925 1727.24 751.41V691.372C1688.71 745.059 1633.45 771.902 1561.44 771.902C1496.39 771.902 1440.81 747.901 1394.7 699.899C1348.59 651.265 1325.54 592.21 1325.54 522.733C1325.54 452.624 1348.59 393.569 1394.7 345.567C1440.81 297.565 1496.39 273.563 1561.44 273.563C1633.45 273.563 1688.71 300.091 1727.24 353.146V294.056ZM1470.49 631.685C1498.91 660.107 1534.6 674.319 1577.55 674.319C1620.5 674.319 1656.18 660.107 1684.61 631.685C1713.03 602.631 1727.24 566.314 1727.24 522.733C1727.24 479.152 1713.03 443.15 1684.61 414.728C1656.18 385.674 1620.5 371.147 1577.55 371.147C1534.6 371.147 1498.91 385.674 1470.49 414.728C1442.07 443.15 1427.86 479.152 1427.86 522.733C1427.86 566.314 1442.07 602.631 1470.49 631.685Z" fill="url(#paint1_linear_172_1189)"/>
<path d="M1917.53 759.587C1913.01 759.587 1909.35 755.926 1909.35 751.411V294.057C1909.35 289.541 1913.01 285.881 1917.53 285.881H2003.5C2008.01 285.881 2011.67 289.541 2011.67 294.057V751.411C2011.67 755.926 2008.01 759.587 2003.5 759.587H1917.53Z" fill="url(#paint2_linear_172_1189)"/>
<defs>
<linearGradient id="paint0_linear_172_1189" x1="1367.29" y1="540.044" x2="2527.75" y2="-134.586" gradientUnits="userSpaceOnUse">
<stop stop-color="#6BD9B9"/>
<stop offset="0.698699" stop-color="#DEFF00"/>
</linearGradient>
<linearGradient id="paint1_linear_172_1189" x1="1367.29" y1="540.044" x2="2527.75" y2="-134.586" gradientUnits="userSpaceOnUse">
<stop stop-color="#6BD9B9"/>
<stop offset="0.698699" stop-color="#DEFF00"/>
</linearGradient>
<linearGradient id="paint2_linear_172_1189" x1="1367.29" y1="540.044" x2="2527.75" y2="-134.586" gradientUnits="userSpaceOnUse">
<stop stop-color="#6BD9B9"/>
<stop offset="0.698699" stop-color="#DEFF00"/>
</linearGradient>
</defs>
</svg>
