<svg width="2588" height="947" viewBox="0 0 2588 947" fill="none" xmlns="http://www.w3.org/2000/svg">
<path d="M1012.05 414.008C1012.05 429.8 1020.58 442.433 1037.64 451.907C1055.32 460.751 1076.48 468.646 1101.12 475.594C1126.38 481.911 1151.65 489.491 1176.92 498.334C1202.18 507.177 1223.34 522.337 1240.4 543.813C1258.08 564.657 1266.93 591.187 1266.93 623.401C1266.93 668.88 1249.24 704.568 1213.87 730.466C1179.13 756.363 1135.23 769.312 1082.17 769.312C1035.43 769.312 995.316 759.522 961.839 739.94C930.519 721.621 907.215 696.668 891.928 665.08C890.119 661.341 891.594 656.883 895.186 654.797L968.528 612.211C972.939 609.65 978.575 611.727 980.663 616.381C998.346 655.802 1032.18 675.512 1082.17 675.512C1135.86 675.512 1162.7 657.826 1162.7 622.453C1162.7 607.294 1153.86 594.976 1136.17 585.502C1119.12 576.027 1097.96 568.131 1072.69 561.815C1048.06 554.867 1023.11 546.971 997.843 538.128C972.577 529.285 951.1 514.757 933.414 494.544C916.36 473.699 907.832 447.486 907.832 415.903C907.832 372.319 924.255 337.263 957.101 310.733C990.579 284.204 1031.95 270.939 1081.22 270.939C1120.38 270.939 1155.12 279.783 1185.44 297.469C1214.03 313.219 1236.42 334.896 1252.61 362.499C1254.86 366.33 1253.41 371.212 1249.53 373.384L1178.03 413.455C1173.86 415.793 1168.61 414.041 1166.29 409.859C1149.25 379.148 1120.89 363.792 1081.22 363.792C1061.64 363.792 1045.22 368.214 1031.95 377.057C1018.69 385.268 1012.05 397.585 1012.05 414.008Z" fill="#122C20"/>
<path d="M767.178 288.734C768.332 285.463 771.422 283.276 774.89 283.276H866.296C871.996 283.276 875.947 288.962 873.959 294.304L696.147 772.174C651.754 891.789 577.268 950.015 472.688 946.852C468.359 946.721 464.963 943.126 464.963 938.795V859.486C464.963 854.782 468.926 851.07 473.63 851.112C501.854 851.367 524.863 844.319 542.656 829.97C562.237 814.81 578.344 790.808 590.977 757.962L594.013 751.891C595.092 749.733 595.162 747.208 594.206 744.993L399.779 294.694C397.449 289.296 401.407 283.276 407.286 283.276H501.17C504.486 283.276 507.474 285.28 508.734 288.348L647.826 627.21L767.178 288.734Z" fill="#122C20"/>
<path d="M123.172 414.009C123.172 429.8 131.699 442.433 148.754 451.908C166.44 460.751 187.6 468.647 212.235 475.595C237.501 481.911 262.767 489.491 288.033 498.334C313.299 507.177 334.459 522.337 351.514 543.813C369.2 564.658 378.043 591.187 378.043 623.401C378.043 668.88 360.357 704.568 324.984 730.466C290.244 756.364 246.344 769.313 193.285 769.313C146.543 769.313 106.433 759.522 72.9557 739.941C41.6359 721.622 18.3324 696.668 3.0453 665.081C1.23572 661.341 2.71135 656.883 6.30367 654.798L79.6456 612.212C84.0563 609.651 89.6926 611.728 91.7801 616.381C109.464 655.802 143.299 675.512 193.285 675.512C246.976 675.512 273.821 657.826 273.821 622.454C273.821 607.294 264.978 594.977 247.291 585.502C230.237 576.027 209.076 568.132 183.81 561.815C159.176 554.867 134.226 546.971 108.96 538.128C83.6938 529.285 62.2176 514.757 44.5314 494.544C27.4768 473.7 18.9495 447.486 18.9495 415.904C18.9495 372.32 35.3725 337.263 68.2183 310.734C101.696 284.205 143.069 270.94 192.338 270.94C231.5 270.94 266.241 279.783 296.56 297.469C325.144 313.22 347.533 334.896 363.726 362.499C365.974 366.331 364.526 371.212 360.65 373.384L289.15 413.456C284.978 415.794 279.723 414.042 277.403 409.86C260.363 379.148 232.008 363.793 192.338 363.793C172.757 363.793 156.334 368.214 143.069 377.057C129.804 385.269 123.172 397.586 123.172 414.009Z" fill="#122C20"/>
<path d="M2485.67 104.569C2485.67 100.053 2489.33 96.3921 2493.85 96.3921H2579.82C2584.34 96.3921 2588 100.053 2588 104.569V751.449C2588 755.965 2584.34 759.626 2579.82 759.626H2493.85C2489.33 759.626 2485.67 755.965 2485.67 751.449V691.407C2447.14 745.098 2391.87 771.943 2319.87 771.943C2254.81 771.943 2199.22 747.94 2153.11 699.935C2107 651.297 2083.94 592.238 2083.94 522.756C2083.94 452.643 2107 393.584 2153.11 345.578C2199.22 297.573 2254.81 273.57 2319.87 273.57C2391.87 273.57 2447.14 300.1 2485.67 353.158V104.569ZM2228.91 631.716C2257.33 660.141 2293.02 674.353 2335.97 674.353C2378.92 674.353 2414.61 660.141 2443.04 631.716C2471.46 602.66 2485.67 566.34 2485.67 522.756C2485.67 479.173 2471.46 443.168 2443.04 414.744C2414.61 385.688 2378.92 371.16 2335.97 371.16C2293.02 371.16 2257.33 385.688 2228.91 414.744C2200.48 443.168 2186.27 479.173 2186.27 522.756C2186.27 566.34 2200.48 602.66 2228.91 631.716Z" fill="#122C20"/>
<path d="M1955.54 2.42661C1957.09 -0.80887 1961.85 -0.808871 1963.4 2.42661C1984.3 46.0467 2017.77 81.482 2058.92 103.535C2061.93 105.146 2061.93 109.578 2058.92 111.19C2017.77 133.242 1984.3 168.677 1963.4 212.298C1961.85 215.533 1957.09 215.533 1955.54 212.298C1934.64 168.677 1901.17 133.242 1860.02 111.19C1857.01 109.578 1857.01 105.146 1860.02 103.535C1901.17 81.482 1934.64 46.0467 1955.54 2.42661Z" fill="url(#paint0_linear_172_1199)"/>
<path fill-rule="evenodd" clip-rule="evenodd" d="M1723.67 294.076C1723.67 289.56 1727.33 285.899 1731.85 285.899H1817.82C1822.34 285.899 1826 289.56 1826 294.076V751.461C1826 755.977 1822.34 759.638 1817.82 759.638L1731.85 759.638C1727.33 759.638 1723.67 755.977 1723.67 751.461V691.419C1685.14 745.11 1629.87 771.955 1557.86 771.955C1492.8 771.955 1437.22 747.952 1391.11 699.947C1344.99 651.309 1321.94 592.25 1321.94 522.768C1321.94 452.655 1344.99 393.596 1391.11 345.59C1437.22 297.585 1492.8 273.582 1557.86 273.582C1629.87 273.582 1685.14 300.111 1723.67 353.17V294.076ZM1466.9 631.728C1495.33 660.153 1531.02 674.365 1573.97 674.365C1616.92 674.365 1652.61 660.153 1681.03 631.728C1709.46 602.672 1723.67 566.352 1723.67 522.768C1723.67 479.185 1709.46 443.18 1681.03 414.756C1652.61 385.7 1616.92 371.172 1573.97 371.172C1531.02 371.172 1495.33 385.7 1466.9 414.756C1438.48 443.18 1424.27 479.185 1424.27 522.768C1424.27 566.352 1438.48 602.672 1466.9 631.728Z" fill="url(#paint1_linear_172_1199)"/>
<path d="M1913.97 759.639C1909.46 759.639 1905.8 755.978 1905.8 751.462V294.077C1905.8 289.561 1909.46 285.9 1913.97 285.9H1999.95C2004.46 285.9 2008.12 289.561 2008.12 294.077V751.462C2008.12 755.978 2004.46 759.639 1999.95 759.639H1913.97Z" fill="url(#paint2_linear_172_1199)"/>
<defs>
<linearGradient id="paint0_linear_172_1199" x1="1363.7" y1="540.081" x2="2524.23" y2="-134.596" gradientUnits="userSpaceOnUse">
<stop stop-color="#6BD9B9"/>
<stop offset="0.754808" stop-color="#C8E500"/>
</linearGradient>
<linearGradient id="paint1_linear_172_1199" x1="1363.7" y1="540.081" x2="2524.23" y2="-134.596" gradientUnits="userSpaceOnUse">
<stop stop-color="#6BD9B9"/>
<stop offset="0.754808" stop-color="#C8E500"/>
</linearGradient>
<linearGradient id="paint2_linear_172_1199" x1="1363.7" y1="540.081" x2="2524.23" y2="-134.596" gradientUnits="userSpaceOnUse">
<stop stop-color="#6BD9B9"/>
<stop offset="0.754808" stop-color="#C8E500"/>
</linearGradient>
</defs>
</svg>
